<mxfile host="app.diagrams.net" modified="2024-06-30T16:30:11.103Z" agent="Mozilla/5.0 (Macintosh; Intel Mac OS X 10_15_7) AppleWebKit/537.36 (KHTML, like Gecko) Chrome/126.0.0.0 Safari/537.36" etag="rEpElH2-I2pqY50i0SnE" version="24.6.4" type="github">
  <diagram name="페이지-1" id="qlQ8rEdp6BqqIb108vqA">
    <mxGraphModel dx="954" dy="533" grid="1" gridSize="10" guides="1" tooltips="1" connect="1" arrows="1" fold="1" page="1" pageScale="1" pageWidth="827" pageHeight="1169" math="0" shadow="0">
      <root>
        <mxCell id="0" />
        <mxCell id="1" parent="0" />
        <mxCell id="2IRrQSA8pg6irRItvjrm-3" value="" style="edgeStyle=orthogonalEdgeStyle;rounded=0;orthogonalLoop=1;jettySize=auto;html=1;" edge="1" parent="1" source="2IRrQSA8pg6irRItvjrm-1" target="2IRrQSA8pg6irRItvjrm-2">
          <mxGeometry relative="1" as="geometry" />
        </mxCell>
        <mxCell id="2IRrQSA8pg6irRItvjrm-1" value="OT&amp;nbsp;&lt;div&gt;(2인팀 구성)&lt;/div&gt;" style="rounded=0;whiteSpace=wrap;html=1;" vertex="1" parent="1">
          <mxGeometry x="20" y="200" width="120" height="60" as="geometry" />
        </mxCell>
        <mxCell id="2IRrQSA8pg6irRItvjrm-5" value="" style="edgeStyle=orthogonalEdgeStyle;rounded=0;orthogonalLoop=1;jettySize=auto;html=1;" edge="1" parent="1" source="2IRrQSA8pg6irRItvjrm-2" target="2IRrQSA8pg6irRItvjrm-4">
          <mxGeometry relative="1" as="geometry" />
        </mxCell>
        <mxCell id="2IRrQSA8pg6irRItvjrm-2" value="대시보드 내용 구상" style="rounded=0;whiteSpace=wrap;html=1;" vertex="1" parent="1">
          <mxGeometry x="220" y="200" width="120" height="60" as="geometry" />
        </mxCell>
        <mxCell id="2IRrQSA8pg6irRItvjrm-7" value="" style="edgeStyle=orthogonalEdgeStyle;rounded=0;orthogonalLoop=1;jettySize=auto;html=1;" edge="1" parent="1" source="2IRrQSA8pg6irRItvjrm-4" target="2IRrQSA8pg6irRItvjrm-6">
          <mxGeometry relative="1" as="geometry" />
        </mxCell>
        <mxCell id="2IRrQSA8pg6irRItvjrm-4" value="크롤링 코드 구현" style="rounded=0;whiteSpace=wrap;html=1;" vertex="1" parent="1">
          <mxGeometry x="420" y="200" width="120" height="60" as="geometry" />
        </mxCell>
        <mxCell id="2IRrQSA8pg6irRItvjrm-6" value="로컬 DB 생성&lt;div&gt;+&amp;nbsp;&lt;div&gt;크롤러 연동&lt;/div&gt;&lt;/div&gt;" style="whiteSpace=wrap;html=1;rounded=0;" vertex="1" parent="1">
          <mxGeometry x="620" y="200" width="150" height="60" as="geometry" />
        </mxCell>
        <mxCell id="2IRrQSA8pg6irRItvjrm-12" value="" style="edgeStyle=orthogonalEdgeStyle;rounded=0;orthogonalLoop=1;jettySize=auto;html=1;" edge="1" parent="1" source="2IRrQSA8pg6irRItvjrm-9" target="2IRrQSA8pg6irRItvjrm-11">
          <mxGeometry relative="1" as="geometry" />
        </mxCell>
        <mxCell id="2IRrQSA8pg6irRItvjrm-9" value="Tableau Desktop 설치&lt;div&gt;+&lt;/div&gt;&lt;div&gt;로컬 DB 연동&lt;/div&gt;" style="whiteSpace=wrap;html=1;rounded=0;" vertex="1" parent="1">
          <mxGeometry x="17" y="330" width="150" height="60" as="geometry" />
        </mxCell>
        <mxCell id="2IRrQSA8pg6irRItvjrm-14" value="" style="edgeStyle=orthogonalEdgeStyle;rounded=0;orthogonalLoop=1;jettySize=auto;html=1;" edge="1" parent="1" source="2IRrQSA8pg6irRItvjrm-11" target="2IRrQSA8pg6irRItvjrm-13">
          <mxGeometry relative="1" as="geometry" />
        </mxCell>
        <mxCell id="2IRrQSA8pg6irRItvjrm-11" value="대시보드 구현&lt;div&gt;(테이블별 쿼리 작성)&lt;/div&gt;" style="whiteSpace=wrap;html=1;rounded=0;" vertex="1" parent="1">
          <mxGeometry x="227" y="330" width="120" height="60" as="geometry" />
        </mxCell>
        <mxCell id="2IRrQSA8pg6irRItvjrm-16" value="" style="edgeStyle=orthogonalEdgeStyle;rounded=0;orthogonalLoop=1;jettySize=auto;html=1;" edge="1" parent="1" source="2IRrQSA8pg6irRItvjrm-13" target="2IRrQSA8pg6irRItvjrm-15">
          <mxGeometry relative="1" as="geometry" />
        </mxCell>
        <mxCell id="2IRrQSA8pg6irRItvjrm-13" value="서버 DB (RDS)&amp;nbsp;인스턴스 생성&lt;div&gt;+&lt;/div&gt;&lt;div&gt;로컬 크롤링 파일 연동&lt;/div&gt;" style="whiteSpace=wrap;html=1;rounded=0;" vertex="1" parent="1">
          <mxGeometry x="409.5" y="330" width="175" height="60" as="geometry" />
        </mxCell>
        <mxCell id="2IRrQSA8pg6irRItvjrm-15" value="Tableau Desktop에&lt;div&gt;서버 DB 연동&lt;/div&gt;" style="whiteSpace=wrap;html=1;rounded=0;" vertex="1" parent="1">
          <mxGeometry x="642" y="330" width="120" height="60" as="geometry" />
        </mxCell>
        <mxCell id="2IRrQSA8pg6irRItvjrm-23" value="" style="edgeStyle=orthogonalEdgeStyle;rounded=0;orthogonalLoop=1;jettySize=auto;html=1;" edge="1" parent="1" source="2IRrQSA8pg6irRItvjrm-18" target="2IRrQSA8pg6irRItvjrm-22">
          <mxGeometry relative="1" as="geometry" />
        </mxCell>
        <mxCell id="2IRrQSA8pg6irRItvjrm-18" value="가상 머신 (EC2) 인스턴스 생성&lt;div&gt;+&lt;/div&gt;&lt;div&gt;서버에 크롤러 배포&lt;/div&gt;" style="whiteSpace=wrap;html=1;rounded=0;" vertex="1" parent="1">
          <mxGeometry x="14.5" y="471" width="160" height="60" as="geometry" />
        </mxCell>
        <mxCell id="2IRrQSA8pg6irRItvjrm-20" value="아마존 AWS Lambda 활용&lt;div&gt;(서버 인스턴스 스케줄링)&lt;/div&gt;" style="whiteSpace=wrap;html=1;rounded=0;" vertex="1" parent="1">
          <mxGeometry x="424.5" y="471" width="160" height="60" as="geometry" />
        </mxCell>
        <mxCell id="2IRrQSA8pg6irRItvjrm-24" value="" style="edgeStyle=orthogonalEdgeStyle;rounded=0;orthogonalLoop=1;jettySize=auto;html=1;" edge="1" parent="1" source="2IRrQSA8pg6irRItvjrm-22" target="2IRrQSA8pg6irRItvjrm-20">
          <mxGeometry relative="1" as="geometry" />
        </mxCell>
        <mxCell id="2IRrQSA8pg6irRItvjrm-22" value="cron 탭 활용&lt;div&gt;(크롤링 파일 스케줄링)&lt;/div&gt;" style="whiteSpace=wrap;html=1;rounded=0;" vertex="1" parent="1">
          <mxGeometry x="234.5" y="471" width="120" height="60" as="geometry" />
        </mxCell>
        <mxCell id="2IRrQSA8pg6irRItvjrm-25" value="" style="shape=crossbar;whiteSpace=wrap;html=1;rounded=1;direction=south;rotation=-90;" vertex="1" parent="1">
          <mxGeometry x="170" y="22" width="20" height="320" as="geometry" />
        </mxCell>
        <mxCell id="2IRrQSA8pg6irRItvjrm-26" value="1~2주차" style="text;strokeColor=none;fillColor=none;html=1;fontSize=24;fontStyle=0;verticalAlign=middle;align=center;" vertex="1" parent="1">
          <mxGeometry x="126" y="145" width="100" height="40" as="geometry" />
        </mxCell>
        <mxCell id="2IRrQSA8pg6irRItvjrm-27" value="" style="shape=crossbar;whiteSpace=wrap;html=1;rounded=1;direction=south;rotation=-90;" vertex="1" parent="1">
          <mxGeometry x="470" y="120" width="20" height="120" as="geometry" />
        </mxCell>
        <mxCell id="2IRrQSA8pg6irRItvjrm-30" value="3주차" style="text;strokeColor=none;fillColor=none;html=1;fontSize=24;fontStyle=0;verticalAlign=middle;align=center;" vertex="1" parent="1">
          <mxGeometry x="430" y="146" width="100" height="40" as="geometry" />
        </mxCell>
        <mxCell id="2IRrQSA8pg6irRItvjrm-31" value="" style="shape=crossbar;whiteSpace=wrap;html=1;rounded=1;direction=south;rotation=-90;" vertex="1" parent="1">
          <mxGeometry x="685" y="105" width="20" height="150" as="geometry" />
        </mxCell>
        <mxCell id="2IRrQSA8pg6irRItvjrm-32" value="4주차" style="text;strokeColor=none;fillColor=none;html=1;fontSize=24;fontStyle=0;verticalAlign=middle;align=center;" vertex="1" parent="1">
          <mxGeometry x="645" y="146" width="100" height="40" as="geometry" />
        </mxCell>
        <mxCell id="2IRrQSA8pg6irRItvjrm-33" value="" style="shape=crossbar;whiteSpace=wrap;html=1;rounded=1;direction=south;rotation=-90;" vertex="1" parent="1">
          <mxGeometry x="82" y="240" width="20" height="150" as="geometry" />
        </mxCell>
        <mxCell id="2IRrQSA8pg6irRItvjrm-34" value="5주차" style="text;strokeColor=none;fillColor=none;html=1;fontSize=24;fontStyle=0;verticalAlign=middle;align=center;" vertex="1" parent="1">
          <mxGeometry x="42" y="281" width="100" height="40" as="geometry" />
        </mxCell>
        <mxCell id="2IRrQSA8pg6irRItvjrm-35" value="" style="shape=crossbar;whiteSpace=wrap;html=1;rounded=1;direction=south;rotation=-90;" vertex="1" parent="1">
          <mxGeometry x="276" y="255" width="20" height="120" as="geometry" />
        </mxCell>
        <mxCell id="2IRrQSA8pg6irRItvjrm-36" value="6주차" style="text;strokeColor=none;fillColor=none;html=1;fontSize=24;fontStyle=0;verticalAlign=middle;align=center;" vertex="1" parent="1">
          <mxGeometry x="238" y="281" width="100" height="40" as="geometry" />
        </mxCell>
        <mxCell id="2IRrQSA8pg6irRItvjrm-37" value="" style="shape=crossbar;whiteSpace=wrap;html=1;rounded=1;direction=south;rotation=-90;" vertex="1" parent="1">
          <mxGeometry x="486.38" y="228.13" width="20" height="173.75" as="geometry" />
        </mxCell>
        <mxCell id="2IRrQSA8pg6irRItvjrm-38" value="7주차" style="text;strokeColor=none;fillColor=none;html=1;fontSize=24;fontStyle=0;verticalAlign=middle;align=center;" vertex="1" parent="1">
          <mxGeometry x="447" y="281" width="100" height="40" as="geometry" />
        </mxCell>
        <mxCell id="2IRrQSA8pg6irRItvjrm-39" value="" style="shape=crossbar;whiteSpace=wrap;html=1;rounded=1;direction=south;rotation=-90;" vertex="1" parent="1">
          <mxGeometry x="693.91" y="254.53" width="20" height="120.94" as="geometry" />
        </mxCell>
        <mxCell id="2IRrQSA8pg6irRItvjrm-40" value="8주차" style="text;strokeColor=none;fillColor=none;html=1;fontSize=24;fontStyle=0;verticalAlign=middle;align=center;" vertex="1" parent="1">
          <mxGeometry x="653.91" y="281" width="100" height="40" as="geometry" />
        </mxCell>
        <mxCell id="2IRrQSA8pg6irRItvjrm-41" value="" style="shape=crossbar;whiteSpace=wrap;html=1;rounded=1;direction=south;rotation=-90;" vertex="1" parent="1">
          <mxGeometry x="290" y="173" width="20" height="570" as="geometry" />
        </mxCell>
        <mxCell id="2IRrQSA8pg6irRItvjrm-42" value="9 ~ 10주차 (option)" style="text;strokeColor=none;fillColor=none;html=1;fontSize=24;fontStyle=0;verticalAlign=middle;align=center;" vertex="1" parent="1">
          <mxGeometry x="244.5" y="418" width="100" height="40" as="geometry" />
        </mxCell>
      </root>
    </mxGraphModel>
  </diagram>
</mxfile>
